<svg width="150" height="110" viewBox="0 0 150 110" fill="none" xmlns="http://www.w3.org/2000/svg">
<g clip-path="url(#clip0_7_59)">
<path d="M61.5653 31.6107C59.3275 31.259 57.1757 30.9512 55.1101 30.6435C53.0444 30.3357 51.2369 30.0719 49.7738 29.8521C49.2574 29.7642 48.87 29.6323 48.5688 29.5004C48.2676 29.3245 48.1385 29.0168 48.1385 28.5771C48.1385 27.7858 48.1815 26.9504 48.2245 26.0711C48.2676 25.1918 48.3106 24.3126 48.3536 23.4333C48.4827 21.8066 48.6549 20.0919 48.87 18.3333C49.0852 16.5747 49.3434 14.7722 49.6447 13.0136C49.9459 11.255 50.2902 9.4964 50.6775 7.78178C51.0648 6.06715 51.4952 4.39648 51.9685 2.81375C52.0546 2.59393 52.1837 2.33014 52.4419 2.15428C52.6571 1.93445 52.9153 1.80256 53.2165 1.75859C54.0772 1.6267 55.4113 1.45084 57.1757 1.27498C58.9401 1.05516 60.7476 0.879297 62.6842 0.703437C64.6637 0.527578 66.6003 0.351719 68.4938 0.219824C70.3874 0.0879297 71.8936 0 73.0125 0C73.3137 0 73.5719 0.0439648 73.658 0.175859C73.7871 0.263789 73.8301 0.439648 73.8301 0.571543C73.8301 0.703437 73.7441 1.09912 73.615 1.71463C73.4858 2.33014 73.2707 3.03357 73.0555 3.82494C72.7973 4.61631 72.5391 5.45164 72.2809 6.28697C72.0227 7.1223 71.7214 7.82574 71.4632 8.44125C71.3771 8.61711 71.248 8.749 71.1189 8.79297C70.9898 8.8809 70.8607 8.8809 70.6886 8.92486C70.4734 8.92486 70.2582 8.8809 70 8.83693C69.7418 8.749 69.4406 8.66107 69.0533 8.52918C68.4078 8.30935 67.6331 8.13349 66.8155 7.95763C65.9978 7.78178 65.0511 7.73781 64.0613 7.78178C63.4588 7.78178 62.9424 7.86971 62.512 8.0016C62.0817 8.13349 61.6944 8.30935 61.3931 8.57314C61.1349 8.79297 60.9628 9.01279 60.8337 9.32055C60.7046 9.6283 60.6185 9.93605 60.6185 10.2438C60.6185 10.5955 60.7046 10.9033 60.8767 11.0791C61.0488 11.255 61.3501 11.3869 61.7374 11.3869C62.512 11.3869 63.3727 11.299 64.3195 11.0791C65.3093 10.9033 66.2991 10.7714 67.418 10.7714C68.2787 10.7714 68.9242 10.8593 69.4406 10.9912C69.957 11.1231 70.2152 11.3869 70.2152 11.7386C70.2152 12.0024 70.1291 12.442 70 13.0576C69.8709 13.6731 69.6988 14.3765 69.5267 15.1239C69.3545 15.8713 69.1393 16.5747 68.9242 17.3221C68.709 18.0256 68.4938 18.6411 68.3217 19.0807C68.2356 19.3445 68.1065 19.4764 68.0205 19.5644C67.8913 19.6523 67.7622 19.6962 67.5901 19.6962C67.2889 19.6523 66.6864 19.5204 65.8687 19.2566C65.008 18.9928 64.1473 18.8169 63.2006 18.773C62.0817 18.6851 61.307 18.8609 60.8767 19.3006C60.4464 19.6962 60.2312 20.1359 60.2312 20.6195C60.2312 21.279 60.4464 21.8066 60.8767 22.1583C61.3501 22.51 62.0817 22.7298 63.1145 22.8617C65.0511 23.0376 66.6433 22.9496 67.8483 22.466C69.0533 22.0264 70 21.5867 70.6456 21.279C70.8607 21.191 71.0329 21.1031 71.1189 21.0592C71.248 21.0152 71.3341 20.9712 71.4632 20.9712C71.5923 20.9712 71.6784 21.0152 71.8075 21.1031C71.8936 21.191 71.9796 21.279 71.9796 21.4109C72.1518 21.8945 72.3669 22.5979 72.6252 23.5651C72.8403 24.5324 73.0555 25.5436 73.2707 26.6427C73.4858 27.6978 73.658 28.753 73.7871 29.7642C73.9162 30.7754 74.0023 31.5667 74.0023 32.1383C74.0023 32.534 73.8732 32.8417 73.615 33.0176C73.3567 33.1934 72.9694 33.2814 72.453 33.2374C70.8177 33.0176 69.0533 32.7978 67.1167 32.49C65.3523 32.1823 63.4588 31.9185 61.5653 31.6107Z" fill="#17231C"/>
<path d="M92.5932 4.08872C94.6158 4.00079 96.1651 4.96802 97.2409 6.90247C98.3168 8.88089 99.0484 12.2662 99.4357 16.9704C99.6078 19.0368 99.7369 21.1031 99.823 23.1255C99.9091 25.1479 99.9521 26.9944 99.9951 28.6651C100.038 30.3357 100.038 31.7866 100.038 33.0615C100.038 34.3365 99.9951 35.2158 99.9951 35.7874C99.9951 36.3149 99.866 36.7106 99.6078 36.9305C99.3496 37.1503 99.0484 37.2382 98.6611 37.2382C98.1446 37.1942 97.5422 37.1503 96.8536 37.0623C96.1651 36.9744 95.4335 36.8865 94.7019 36.7986C93.9703 36.7106 93.2387 36.5787 92.5071 36.4468C91.7755 36.3149 91.087 36.1831 90.4414 36.0512C90.0111 35.9632 89.7099 35.7874 89.5377 35.6115C89.3656 35.3917 89.2365 35.1719 89.2365 34.8641C89.1934 34.1607 89.1934 33.1495 89.1504 31.8305C89.1504 30.4676 89.1074 29.0168 89.1074 27.478C89.0643 25.9392 89.0643 24.3565 89.0213 22.7298C88.9783 21.1031 88.9352 19.7402 88.8922 18.5092C88.8061 17.0583 88.634 16.0032 88.3328 15.3877C88.0315 14.7722 87.6872 14.4644 87.2569 14.4644C87.0848 14.4644 86.9126 14.4644 86.7405 14.5084C86.6114 14.5524 86.4392 14.6403 86.3532 14.7722C86.095 15.036 85.9228 15.4756 85.8798 16.1351C85.8367 16.7506 85.8367 17.6299 85.8798 18.729C86.0519 22.8177 86.3532 26.203 86.6974 28.9728C87.0417 31.6986 87.2569 33.5452 87.2999 34.3805C87.2999 34.8201 87.2139 35.0839 86.9987 35.2598C86.7835 35.4356 86.4392 35.4796 86.0089 35.4356C85.4494 35.3917 84.847 35.3038 84.2445 35.2158C83.642 35.1279 83.0395 35.04 82.394 34.952C81.5763 34.8201 80.8447 34.6882 80.1131 34.5564C79.3816 34.4245 78.736 34.2926 78.2196 34.1607C77.7893 34.0727 77.402 33.8969 77.1007 33.6331C76.7995 33.3693 76.6273 32.9297 76.5843 32.3141C76.4122 30.5116 76.24 28.4452 76.1109 26.203C75.9388 23.9608 75.8527 21.5428 75.8097 18.9928C75.7666 17.2342 75.7666 15.3437 75.8097 13.4093C75.8527 11.4748 75.8957 9.4964 76.0249 7.43005C76.0249 6.68265 76.2831 6.11111 76.7564 5.80335C77.2298 5.4956 77.7893 5.27577 78.4348 5.18784C78.9512 5.14388 79.5107 5.09991 80.1131 5.01198C80.7156 4.96802 81.3181 4.92406 81.8776 4.88009C82.3509 4.88009 82.8243 4.83613 83.2977 4.83613C83.7711 4.83613 84.1154 4.83613 84.4166 4.88009C84.89 4.88009 85.2343 5.01198 85.4064 5.18784C85.5785 5.40767 85.7076 5.67146 85.7076 6.02318C85.7076 6.37489 85.7937 6.63868 85.9228 6.77058C86.0519 6.90247 86.2671 6.9904 86.4823 6.9904C86.8696 6.9904 87.2569 6.81454 87.6012 6.55075C87.9885 6.243 88.3758 5.93525 88.8492 5.58353C89.3225 5.23181 89.839 4.92406 90.3984 4.6163C91.0009 4.30855 91.7325 4.13269 92.5932 4.08872Z" fill="#17231C"/>
<path d="M11.8172 60.1439C10.7414 60.3637 9.53639 60.6275 8.24535 60.9353C6.95431 61.243 5.79238 61.5508 4.84561 61.8146C4.37223 61.9465 3.94189 61.9904 3.64064 61.9025C3.3394 61.8146 3.16726 61.5068 3.16726 61.0232C3.16726 60.5396 3.2103 59.9241 3.29637 59.0887C3.38244 58.2534 3.51154 57.3741 3.64064 56.4509C4.28616 52.5819 5.06079 49.3725 5.96451 46.7786C6.82521 44.1847 7.34162 42.6019 7.51376 41.8985C7.55679 41.5907 7.55679 41.3709 7.42769 41.239C7.29859 41.1071 6.99734 41.1071 6.48093 41.239C5.18989 41.6347 4.07099 42.1623 3.03816 42.8218C2.00533 43.4812 1.18767 43.9209 0.585188 44.1847C0.370015 44.2726 0.197876 44.2726 0.111807 44.2286C-0.0172966 44.1847 -0.0172966 44.0088 0.025738 43.745C0.111807 43.3933 0.283946 42.7778 0.585188 41.9425C0.843396 41.1071 1.18767 40.2278 1.53195 39.3046C1.87623 38.3373 2.26354 37.458 2.60781 36.5348C2.95209 35.6555 3.29637 34.9081 3.55458 34.3805C3.68368 34.1607 3.89885 33.9409 4.11403 33.721C4.37223 33.5012 4.67348 33.2814 5.06079 33.0616C5.92148 32.578 7.42769 31.9185 9.53639 31.1271C11.6451 30.3797 14.1411 29.6763 17.0244 29.2366C19.5634 28.8409 21.7582 28.6651 23.6517 28.709C25.5453 28.753 26.9224 28.9289 27.7831 29.2366C28.2134 29.4564 28.5146 29.6763 28.5577 29.9401C28.6438 30.2039 28.6007 30.5556 28.5147 31.0392C28.3855 31.6107 28.2564 32.2262 28.1273 32.8857C27.9982 33.5452 27.8261 34.2046 27.654 34.8202C27.4818 35.4796 27.3097 36.0951 27.1375 36.6667C26.9654 37.2382 26.7933 37.7658 26.6211 38.1615C26.5351 38.3813 26.406 38.5132 26.2768 38.6011C26.1477 38.6891 25.9756 38.733 25.8465 38.777C25.4592 38.777 24.8567 38.6891 24.0821 38.4253C23.3075 38.2055 22.3607 38.1175 21.1988 38.2494C20.8115 38.2934 20.5102 38.4253 20.295 38.6011C20.0799 38.777 19.8647 39.0847 19.6926 39.4365C19.6065 39.6563 19.5634 39.9201 19.4343 40.2278C19.3483 40.5356 19.2622 40.8873 19.2192 41.239C18.9179 43.2614 18.7888 45.1959 18.7888 46.9984C18.8319 48.8449 18.9179 50.5156 19.1331 51.9664C19.3052 53.4173 19.5204 54.6923 19.6926 55.7035C19.8647 56.7146 19.9508 57.462 19.9508 57.8577C19.9508 58.1215 19.8217 58.3853 19.5634 58.5612C19.3483 58.737 18.961 58.8689 18.4876 59.0008C17.8851 59.1327 16.9814 59.2646 15.6903 59.4844C14.5284 59.6163 13.1943 59.8361 11.8172 60.1439Z" fill="#17231C"/>
<path d="M50.4193 53.4612C50.3763 54.8681 50.032 56.0991 49.3865 57.1103C48.6979 58.1215 47.7942 58.9128 46.6753 59.4404C45.5564 60.012 44.2223 60.3197 42.7161 60.4956C41.2099 60.6275 39.6176 60.5835 37.9393 60.3197C35.4002 59.924 33.2485 59.3085 31.5271 58.4292C29.8057 57.5499 28.4286 56.4948 27.4388 55.2198C26.449 53.9888 25.8035 52.5819 25.4592 51.0431C25.158 49.5044 25.0719 47.9216 25.244 46.2949C25.5023 43.657 26.1908 41.4148 27.2236 39.6123C28.2565 37.8097 29.4614 36.3589 30.9246 35.2598C32.3878 34.1606 33.9801 33.4132 35.7445 32.9736C37.5089 32.5339 39.3594 32.3581 41.2529 32.49C43.9641 32.7098 46.1589 33.5012 47.9233 34.8641C49.6447 36.271 50.5054 38.1614 50.3763 40.6235C50.2902 42.3821 49.9029 43.745 49.2143 44.7562C48.4827 45.7674 47.622 46.5148 46.5462 47.0423C45.4703 47.5699 44.3084 47.8777 43.0173 48.0535C41.7263 48.2294 40.5213 48.3613 39.3594 48.4932C38.3696 48.5811 37.638 48.713 37.1646 48.8449C36.7343 49.0208 36.4761 49.2406 36.4761 49.5923C36.4761 49.9001 36.6482 50.1638 36.9925 50.3837C37.3368 50.6035 37.9823 50.7793 38.843 50.8673C40.5644 51.0871 42.2858 51.0871 44.0071 50.8673C45.7285 50.6475 47.1487 50.2957 48.2245 49.7682C48.3967 49.6802 48.5688 49.6363 48.6979 49.5923C48.87 49.5483 48.9991 49.5483 49.1283 49.5483C49.5156 49.6363 49.8168 49.988 50.032 50.6475C50.3332 51.3949 50.4193 52.3181 50.4193 53.4612ZM40.7365 40.3597C40.7795 40.008 40.6504 39.7002 40.3922 39.4364C40.134 39.1726 39.7037 38.9968 39.1873 38.9528C38.3696 38.8649 37.638 39.1726 36.9495 39.7881C36.2609 40.4037 35.8736 41.195 35.8306 42.0743C35.8306 42.2502 35.8306 42.426 35.9166 42.5579C35.9597 42.6898 36.0888 42.7338 36.3039 42.7778C36.5191 42.7778 36.7343 42.7778 36.9064 42.7338C37.1216 42.6898 37.3368 42.6459 37.5519 42.5579C38.1975 42.3381 38.9291 42.0743 39.6176 41.7666C40.3062 41.4148 40.6935 40.9312 40.7365 40.3597Z" fill="#17231C"/>
<path d="M63.6739 64.3205C63.6739 64.7602 63.5448 65.024 63.2866 65.1559C63.0284 65.2878 62.6841 65.2878 62.1677 65.1998C61.7374 65.1119 61.221 64.98 60.6615 64.8481C60.1021 64.7162 59.5426 64.5404 58.8971 64.4085C58.2085 64.2326 57.477 64.0128 56.7454 63.793C55.9707 63.5731 55.1961 63.3533 54.4215 63.0895C53.9481 62.9137 53.5608 62.6938 53.2165 62.4301C52.9153 62.1223 52.7431 61.6387 52.7001 60.9792C52.528 58.9129 52.3558 56.7586 52.2698 54.4724C52.1407 52.1863 52.1407 49.8122 52.1837 47.3062C52.2267 45.6355 52.3128 43.8769 52.4419 42.0304C52.571 40.2278 52.7862 38.3373 53.0874 36.4029C53.1735 35.6994 53.4747 35.2598 53.9911 35.0839C54.5076 34.9081 55.1101 34.8201 55.8416 34.8641C56.315 34.9081 56.8314 34.952 57.477 35.04C58.1225 35.1279 58.768 35.2158 59.4135 35.3038C60.1451 35.4357 60.8767 35.5675 61.5222 35.6994C62.1677 35.8313 62.6841 35.9632 63.0284 36.0512C63.3727 36.1391 63.6309 36.271 63.803 36.4468C63.9321 36.6227 64.0182 36.7986 64.0182 37.0184C64.0182 37.2382 63.9752 37.458 63.8461 37.6779C63.76 37.8977 63.6739 38.1615 63.6739 38.3813C63.6739 38.5132 63.717 38.6011 63.803 38.733C63.8891 38.8209 64.0182 38.9089 64.1904 38.9528C64.5346 38.9968 64.8789 38.9089 65.2662 38.689C65.6535 38.4253 66.1269 38.1615 66.6003 37.8977C67.1167 37.6339 67.6762 37.3701 68.2786 37.1503C68.8811 36.9305 69.6127 36.9305 70.4304 37.0624C71.205 37.1942 71.8935 37.458 72.453 37.7658C73.0124 38.0735 73.4858 38.4253 73.9162 38.777C74.3465 39.1287 74.6908 39.4365 75.0351 39.7442C75.3793 40.008 75.6806 40.1839 75.9818 40.2718C76.3261 40.3597 76.6704 40.3157 77.1438 40.1839C77.5741 40.052 78.0905 39.9201 78.6069 39.7442C79.1664 39.5683 79.7689 39.4365 80.5005 39.3485C81.189 39.2606 82.0067 39.3046 82.9104 39.4804C85.7507 40.008 87.9455 41.7666 89.4086 44.8002C90.8718 47.8337 91.7755 52.1423 92.0337 57.6379C92.2059 61.4628 92.2059 64.5843 92.0337 66.9145C91.8616 69.2886 91.6895 70.8273 91.4743 71.6187C91.3452 72.1023 91.087 72.3661 90.6566 72.454C90.2693 72.542 89.839 72.5859 89.4947 72.542C89.0213 72.454 88.4619 72.3661 87.7733 72.2342C87.1278 72.1023 86.3962 71.9704 85.7077 71.7946C84.9761 71.6187 84.2014 71.4428 83.4268 71.223C82.6522 71.0032 81.8776 70.7834 81.146 70.5636C80.5005 70.3437 80.0701 70.0799 79.855 69.7722C79.6398 69.4644 79.5107 69.0687 79.5107 68.6291C79.5107 67.8817 79.6398 66.3869 79.898 64.1007C80.1562 61.8585 80.2423 58.737 80.1562 54.8241C80.1132 52.7138 79.941 51.1751 79.7258 50.2078C79.5107 49.1966 79.1234 48.6691 78.5209 48.5372C78.0045 48.4053 77.6602 48.6251 77.402 49.1087C77.1438 49.5923 77.0577 50.5156 77.1007 51.9225C77.1438 53.3733 77.1868 54.6043 77.1868 55.5715C77.2298 56.5388 77.2729 57.6819 77.2729 58.9568C77.3159 61.0672 77.2729 62.9137 77.1868 64.4524C77.1007 65.9912 77.0147 67.1343 76.9286 67.8377C76.8856 68.3653 76.7134 68.717 76.4552 68.8929C76.197 69.0687 75.8527 69.1127 75.4224 69.0248C74.8629 68.8929 74.2174 68.761 73.4428 68.5851C72.6682 68.4093 71.8935 68.1895 71.0759 67.9696C70.4304 67.7938 69.7418 67.5739 69.0533 67.3541C68.3647 67.1343 67.6762 66.9145 67.0306 66.6946C66.5573 66.5188 66.213 66.299 66.0408 66.0352C65.8687 65.7714 65.7826 65.4636 65.7826 65.1559C65.7826 64.98 65.7826 64.2766 65.8257 63.1775C65.8257 62.0783 65.8687 60.7154 65.8687 59.1767C65.8687 57.6379 65.9117 55.9672 65.9548 54.2086C65.9978 52.45 65.9978 50.8233 65.9978 49.2846C65.9978 47.9217 65.8687 46.9544 65.6105 46.3389C65.3523 45.7674 64.965 45.4157 64.4055 45.2838C63.9752 45.1958 63.6309 45.4157 63.3727 45.9432C63.1145 46.4708 62.9854 47.482 62.9424 49.0208C62.9424 53.3733 63.0715 56.9345 63.2866 59.5723C63.5018 62.0783 63.6309 63.749 63.6739 64.3205Z" fill="#17231C"/>
<path d="M106.536 78.6091C105.891 78.6971 105.202 78.785 104.428 78.8729C103.653 78.9608 102.922 79.0048 102.147 79.0488C101.415 79.0927 100.684 79.0927 100.038 79.1367C99.3927 79.1367 98.8332 79.0927 98.4459 79.0488C98.0156 79.0048 97.6713 78.785 97.37 78.4772C97.0688 78.1695 96.7676 77.51 96.4663 76.5428C95.8638 74.4764 95.3044 68.1895 94.9601 65.4197C94.6158 62.6499 94.4007 59.6603 94.2285 56.5388C94.0564 53.0656 94.0133 50.3397 94.1424 48.3174C94.2285 46.295 94.6158 44.8002 95.2613 43.8329C95.9069 42.8657 96.8967 42.2942 98.2307 42.1623C99.5648 42.0304 101.372 42.1183 103.61 42.3821C106.536 42.6899 108.989 43.2174 110.969 44.0088C112.949 44.7562 114.627 45.7234 115.875 46.8226C117.166 47.9656 118.113 49.2406 118.801 50.6915C119.447 52.1423 119.877 53.6811 120.049 55.3078C120.394 58.2534 120.307 60.7154 119.748 62.8257C119.232 64.9361 118.457 66.6067 117.553 67.9696C116.607 69.2886 115.574 70.2558 114.455 70.9153C113.336 71.5308 112.389 71.8385 111.571 71.8385C111.055 71.8385 110.539 71.6187 110.108 71.223C109.635 70.8274 109.248 70.3877 108.86 69.9481C108.473 69.5084 108.172 69.0688 107.827 68.6731C107.526 68.2774 107.225 68.0576 107.01 68.0136C106.795 68.0136 106.666 68.0576 106.536 68.1895C106.45 68.3214 106.407 68.4972 106.407 68.717C106.493 70.2998 106.838 75.2238 107.225 76.0152C107.612 76.8505 107.784 77.4221 107.827 77.7298C107.827 77.9936 107.698 78.1695 107.483 78.3453C107.225 78.4772 106.881 78.5652 106.536 78.6091ZM106.622 50.6475C106.106 50.6035 105.762 51.0871 105.547 52.0983C105.331 53.1095 105.374 55.2198 105.59 58.3853C105.719 60.2318 105.891 61.4189 106.106 61.9904C106.321 62.6059 106.622 62.9137 107.01 62.9137C107.741 62.9576 108.215 62.2982 108.473 60.8473C108.731 59.3965 108.774 57.3301 108.516 54.5604C108.387 53.1975 108.172 52.1863 107.87 51.5708C107.569 51.0432 107.139 50.6915 106.622 50.6475Z" fill="#17231C"/>
<path d="M136.747 71.0912C134.767 71.8825 132.874 72.2782 131.109 72.2342C129.345 72.1903 127.795 71.7067 126.504 70.7394C125.17 69.8162 124.094 68.4093 123.234 66.5628C122.373 64.7163 121.814 62.4301 121.512 59.6603C121.254 57.2862 121.297 55.088 121.642 53.1095C121.986 51.0872 122.588 49.3286 123.535 47.8777C124.439 46.3829 125.687 45.1959 127.279 44.3166C128.871 43.4373 130.765 42.8657 133.003 42.602C135.197 42.3382 137.22 42.3821 138.984 42.7338C140.792 43.0856 142.384 43.7011 143.761 44.5364C145.138 45.3717 146.343 46.4269 147.29 47.7458C148.28 49.0208 149.012 50.4717 149.528 52.1423C150.087 54.0328 150.173 55.8354 149.657 57.6379C149.184 59.4405 148.323 61.243 147.075 62.9577C145.87 64.6723 144.321 66.299 142.513 67.7059C140.749 69.1127 138.812 70.2558 136.747 71.0912ZM136.101 62.3861C136.962 62.1223 137.521 61.4629 137.736 60.4956C137.952 59.5284 137.866 58.0776 137.521 56.0992C137.134 54.1207 136.661 52.7139 136.101 51.9225C135.542 51.1311 134.896 50.7794 134.165 50.9113C133.433 51.0432 132.96 51.6147 132.744 52.582C132.529 53.5492 132.572 55.1319 132.917 57.1983C133.261 59.3526 133.648 60.8034 134.122 61.5508C134.595 62.3861 135.24 62.6499 136.101 62.3861Z" fill="#17231C"/>
<path d="M41.1238 64.8482C41.6402 64.9361 42.0705 65.5076 42.4579 66.4748C42.8021 67.486 42.9743 69.2446 43.0603 71.8825C43.1034 73.0256 43.1034 74.1247 43.0173 75.1799C42.9743 76.235 42.8452 77.0264 42.673 77.51C42.5439 77.9497 42.3718 78.1695 42.1996 78.3014C41.9845 78.3893 41.7693 78.4333 41.5111 78.3454C41.2529 78.3014 40.9947 78.0816 40.6934 77.8617C39.7036 77.1583 37.8962 76.7626 37.2507 76.7626C36.8634 76.7626 36.5191 76.8505 36.2609 77.2462C36.0027 77.6419 35.9166 78.5212 36.0027 79.7962C36.0887 81.1151 36.3039 82.6099 36.6912 84.4125C37.0785 86.1711 37.5089 87.9297 37.9392 89.6443C38.4126 91.3589 38.7999 92.8977 39.1872 94.2606C39.5745 95.6235 39.7897 96.4149 39.7897 96.6787C39.8327 97.0744 39.7467 97.3382 39.5315 97.4701C39.3163 97.602 38.886 97.602 38.2835 97.3821C37.638 97.1623 36.9064 96.8985 36.0887 96.5908C35.2711 96.283 34.4104 95.9313 33.5067 95.5796C32.5599 95.2278 31.6131 94.8322 30.6233 94.4804C29.6335 94.0848 28.5577 93.6891 27.4818 93.3374C27.0515 93.1615 26.6642 92.9417 26.3629 92.6339C26.0617 92.3262 25.8035 91.9745 25.6313 91.4908C25.1149 90.1719 24.5985 88.2814 24.1251 85.8633C23.6517 83.4013 23.3075 80.6755 23.1783 77.598C22.9632 73.6411 23.0492 70.6515 23.2644 68.6731C23.4366 66.6507 23.6948 65.2878 23.996 64.4964C24.1251 64.1887 24.2542 63.9249 24.4694 63.749C24.6415 63.5732 24.8567 63.4852 25.0719 63.4413C25.4592 63.3533 26.1477 63.3094 27.1806 63.2654C28.2134 63.2215 29.2893 63.2654 30.3651 63.3534C30.9676 63.3973 31.5701 63.4852 32.1726 63.5732C32.732 63.6611 33.2054 63.749 33.5927 63.8809C33.894 63.9689 34.0661 64.1007 34.1952 64.2766C34.3243 64.4964 34.4104 64.7602 34.4534 65.068C34.4964 65.3318 34.5825 65.5076 34.6686 65.6395C34.7977 65.7714 34.8838 65.8593 35.0559 65.8593C35.185 65.8593 35.3571 65.8593 35.5293 65.7714C35.7014 65.6835 35.8736 65.5956 36.0457 65.5076C35.9596 65.5076 38.1544 64.3206 41.1238 64.8482Z" fill="#17231C"/>
<path d="M60.6185 105.999C56.8745 104.988 49.8599 102.702 47.4069 99.8441C44.9969 97.0304 42.9743 93.3373 42.6731 89.2926C42.5009 87.1383 42.7592 85.4676 43.3616 84.2366C43.9641 83.0056 44.8678 82.0384 45.9437 81.4228C47.0196 80.8073 48.3106 80.4117 49.7308 80.3237C51.1509 80.2358 55.4113 79.928 56.8315 80.1479C57.6922 80.2798 58.3377 80.3237 58.8111 80.2798C59.2844 80.2798 59.4996 80.016 59.4996 79.5324C59.4996 79.2686 59.3275 79.0048 59.0693 78.6531C58.768 78.3013 58.2086 78.0376 57.3479 77.7738C56.0138 77.3781 54.6367 77.2462 53.2166 77.4221C51.7964 77.5979 50.2041 77.7298 49.0422 78.3013C48.9131 78.3893 48.741 78.4772 48.5688 78.5212C48.3967 78.5651 48.2245 78.5651 48.0954 78.5212C47.9663 78.4772 47.8372 78.4332 47.7081 78.3453C47.579 78.2574 47.4499 78.1255 47.3639 77.9936C46.7183 77.2462 46.1158 76.279 45.5564 75.0919C44.9969 73.9049 44.7387 73.2014 44.6957 71.8825C44.6527 69.8601 45.8146 68.4972 48.1385 67.7937C50.4623 67.0903 53.6899 67.3101 57.8213 68.4532C62.469 69.7722 65.7396 71.7945 67.6332 74.4764C69.5267 77.2022 70.5165 80.5436 70.6025 84.6323C70.6025 85.1599 70.6025 85.8633 70.6025 86.7866C70.6025 87.7098 70.6025 88.765 70.6025 89.8641C70.6025 91.0072 70.6025 92.2382 70.6025 93.5132C70.6025 94.8321 70.6456 96.0631 70.6456 97.2942C70.6886 99.0527 70.9038 100.196 70.9038 101.91C71.0329 108.11 60.7046 106.263 60.6185 105.999ZM60.1451 93.2934C60.1021 92.4141 60.0591 91.5348 60.016 90.6555C59.973 89.6882 59.8869 89.0288 59.7578 88.677C59.6287 88.3253 59.3705 88.1055 58.9402 87.9736C58.2516 87.7538 57.6491 87.8857 57.0897 88.3693C56.5302 88.8529 56.3151 90.8313 56.4011 91.8425C56.4442 92.7658 56.7454 93.5571 57.2188 94.2166C57.7352 94.8761 58.2946 95.3157 58.8971 95.4916C59.4135 95.6675 59.8009 95.5795 59.973 95.1838C60.1021 94.8321 60.1882 94.2166 60.1451 93.2934Z" fill="#17231C"/>
<path d="M85.5355 110C81.189 110 78.0905 108.505 76.1109 105.691C74.1313 102.878 73.0124 98.1735 72.9264 92.1942C72.8833 89.0727 73.0555 86.3909 73.4428 84.0607C73.8301 81.7306 74.3896 79.8841 75.1642 78.4772C75.9388 77.0703 76.8425 76.0591 77.9184 75.4876C78.9943 74.9161 80.1992 74.7842 81.4903 75.1359C82.6952 75.4436 83.7281 76.0152 84.6318 76.8505C85.5355 77.6858 86.2671 78.4332 86.8266 79.0927C86.9126 79.1806 86.9557 79.2246 87.0417 79.3125C87.1278 79.3565 87.2139 79.4005 87.2569 79.4005C87.386 79.4444 87.5151 79.4005 87.6442 79.3125C87.7733 79.2246 87.8164 79.0927 87.8164 78.8289C87.8164 78.3014 87.7303 77.554 87.6012 76.5867C87.4721 75.6195 87.2999 74.6523 87.0848 73.6411C86.8696 72.6299 86.6975 71.7506 86.5683 70.9153C86.3962 70.0799 86.3532 69.5963 86.3532 69.3325C86.3532 68.9808 86.4823 68.761 86.7405 68.6291C86.9987 68.4972 87.343 68.4532 87.7733 68.4972C88.3328 68.5851 88.8922 68.6731 89.4947 68.805C90.0972 68.9368 90.6997 69.0248 91.3022 69.1567C92.2059 69.3325 93.1526 69.5524 94.1424 69.7722C95.0892 69.992 96.036 70.2118 96.9397 70.4316C97.4561 70.5635 97.8864 70.7394 98.1877 71.0032C98.4889 71.267 98.7041 71.7946 98.8332 72.542C99.0054 73.5971 99.1775 74.8721 99.3066 76.4109C99.4787 77.9496 99.6078 79.6203 99.6939 81.4668C99.78 83.2694 99.866 85.2038 99.866 87.2262C99.866 89.2486 99.823 91.227 99.7369 93.2054C99.6078 95.7994 99.3927 98.2614 99.0914 100.592C98.7902 102.922 98.4029 104.9 97.9725 106.527C97.8864 106.878 97.7143 107.23 97.4131 107.538C97.1118 107.846 96.6815 108.11 96.2081 108.329C95.3474 108.681 94.0564 109.033 92.4211 109.384C90.6136 109.736 88.3758 110 85.5355 110ZM86.138 101.515C86.3962 101.559 86.6544 101.427 86.8696 101.207C87.0848 100.987 87.2999 100.504 87.4721 99.8441C87.6442 99.1847 87.7733 98.1735 87.9024 96.8985C88.0315 95.6235 88.1176 93.9968 88.1176 91.9744C88.1606 89.5564 88.0315 87.8857 87.7733 86.9185C87.5151 85.9512 87.0417 85.4237 86.3962 85.2918C86.138 85.2478 85.8798 85.2918 85.6646 85.4676C85.4495 85.6435 85.2773 86.0392 85.1482 86.5667C84.9761 87.1383 84.89 87.9296 84.8039 88.9848C84.7179 90.04 84.6748 91.4029 84.6318 93.0735C84.5888 96.283 84.7179 98.4812 84.9761 99.6683C85.2343 100.855 85.6216 101.471 86.138 101.515Z" fill="#17231C"/>
<path d="M111.959 107.406C108 108.11 105.202 107.846 103.266 106.703C101.372 105.56 100.555 103.317 100.856 100.108C100.985 98.3933 101.458 96.8985 102.19 95.7114C102.965 94.4804 103.911 93.5132 105.073 92.6779C106.235 91.8865 107.526 91.227 108.989 90.7434C110.453 90.2598 111.916 89.8641 113.422 89.5564C114.326 89.3365 115.014 89.1607 115.531 88.9848C116.047 88.809 116.305 88.5012 116.305 88.1495C116.305 87.9297 116.176 87.7538 115.918 87.5779C115.66 87.4021 115.057 87.3581 114.154 87.446C112.776 87.5779 111.356 87.8857 109.893 88.4133C108.43 88.9409 107.01 89.7322 105.547 90.7434C105.418 90.8753 105.245 90.9632 105.073 91.0512C104.901 91.1391 104.729 91.1831 104.6 91.1831C104.471 91.1831 104.342 91.1391 104.213 91.0951C104.083 91.0512 103.997 90.9632 103.868 90.8753C103.266 90.3917 102.749 89.6443 102.276 88.6771C101.803 87.7098 101.587 86.6107 101.587 85.3357C101.63 83.4452 102.792 81.9944 105.116 80.9393C107.44 79.8841 110.711 79.4444 114.971 79.1807C119.791 78.8729 123.234 79.1367 125.256 80.4117C127.279 81.6866 128.312 83.753 128.097 86.9185C128.054 87.3141 128.011 87.8417 127.968 88.5452C127.882 89.2486 127.796 90.04 127.666 90.8753C127.537 91.7546 127.408 92.6339 127.279 93.6011C127.15 94.5683 126.978 95.4916 126.849 96.3709C126.634 97.6459 126.504 98.8329 126.375 100.02C126.246 101.207 126.117 101.998 126.031 102.394C125.945 102.746 125.773 103.098 125.472 103.405C125.17 103.713 124.783 103.977 124.31 104.197C123.836 104.416 123.062 104.724 122.072 105.032C121.082 105.34 120.006 105.647 118.887 105.955C117.725 106.263 116.52 106.527 115.315 106.791C114.067 107.01 112.949 107.23 111.959 107.406ZM115.617 97.514C115.66 97.2062 115.703 96.8545 115.746 96.5468C115.832 95.8433 115.832 95.4037 115.703 95.1839C115.617 94.964 115.359 94.9201 114.928 94.964C114.24 95.052 113.551 95.4037 112.863 95.9752C112.217 96.5468 111.83 97.1623 111.744 97.8657C111.658 98.5252 111.873 99.0088 112.303 99.3165C112.733 99.6243 113.293 99.7122 113.895 99.6243C114.455 99.5364 114.842 99.3165 115.1 99.0088C115.402 98.6131 115.531 98.1295 115.617 97.514Z" fill="#17231C"/>
</g>
<defs>
<clipPath id="clip0_7_59">
<rect width="150" height="110" fill="white"/>
</clipPath>
</defs>
</svg>
